<?xml version="1.0" standalone="no"?>
<!DOCTYPE svg PUBLIC "-//W3C//DTD SVG 1.1//EN" "http://www.w3.org/Graphics/SVG/1.1/DTD/svg11.dtd" >
<svg xmlns="http://www.w3.org/2000/svg">
<metadata>
Created by FontForge 20120731 at Fri Dec  2 15:39:02 2016
 By admin
</metadata>
<defs>
<font id="iconfont" horiz-adv-x="1024" >
  <font-face 
    font-family="iconfont"
    font-weight="500"
    font-stretch="normal"
    units-per-em="1024"
    panose-1="2 0 6 3 0 0 0 0 0 0"
    ascent="896"
    descent="-128"
    x-height="792"
    bbox="-0.390625 -128 1025 896.324"
    underline-thickness="0"
    underline-position="0"
    unicode-range="U+0078-E897"
  />
<missing-glyph 
 />
    <glyph glyph-name=".notdef" 
 />
    <glyph glyph-name=".notdef" 
 />
    <glyph glyph-name=".null" horiz-adv-x="0" 
 />
    <glyph glyph-name="nonmarkingreturn" horiz-adv-x="341" 
 />
    <glyph glyph-name="x" unicode="x" horiz-adv-x="1001" 
d="M281 543q-27 -1 -53 -1h-83q-18 0 -36.5 -6t-32.5 -18.5t-23 -32t-9 -45.5v-76h912v41q0 16 -0.5 30t-0.5 18q0 13 -5 29t-17 29.5t-31.5 22.5t-49.5 9h-133v-97h-438v97zM955 310v-52q0 -23 0.5 -52t0.5 -58t-10.5 -47.5t-26 -30t-33 -16t-31.5 -4.5q-14 -1 -29.5 -0.5
t-29.5 0.5h-32l-45 128h-439l-44 -128h-29h-34q-20 0 -45 1q-25 0 -41 9.5t-25.5 23t-13.5 29.5t-4 30v167h911zM163 247q-12 0 -21 -8.5t-9 -21.5t9 -21.5t21 -8.5q13 0 22 8.5t9 21.5t-9 21.5t-22 8.5zM316 123q-8 -26 -14 -48q-5 -19 -10.5 -37t-7.5 -25t-3 -15t1 -14.5
t9.5 -10.5t21.5 -4h37h67h81h80h64h36q23 0 34 12t2 38q-5 13 -9.5 30.5t-9.5 34.5q-5 19 -11 39h-368zM336 498v228q0 11 2.5 23t10 21.5t20.5 15.5t34 6h188q31 0 51.5 -14.5t20.5 -52.5v-227h-327z" />
    <glyph glyph-name="resource" unicode="&#xe626;" 
d="M989 566l-477 330l-477 -330l477 -330zM512 162l-421 281l-56 -59l477 -330l477 330l-56 60zM512 -20l-421 281l-56 -59l477 -330l477 330l-56 60zM512 -20z" />
    <glyph glyph-name="earth" unicode="&#xe627;" 
d="M502 471v0v3v-3v0zM699 256v0h-1h1v0zM704 256h-2h-3q-1 -3 2 -2q1 1 3 2v0zM512 896q-104 0 -199 -40.5t-163.5 -109t-109 -163.5t-40.5 -199t40.5 -199t109 -163.5t163.5 -109t199 -40.5t199 40.5t163.5 109t109 163.5t40.5 199t-40.5 199t-109 163.5t-163.5 109
t-199 40.5v0zM839 696q-30 -1 -44 -10q-2 -2 -5 -4.5t-6 -4.5t-6 -2.5t-9.5 -1t-10.5 -1.5q-9 -3 -15.5 -17.5t-14 -25t-20.5 -7.5t-32 31q-1 3 -5 8t-5 7t-2.5 7.5t2.5 8.5q-2 -1 -5.5 -1h-5.5q3 6 13 9.5t11 5.5q1 5 1 7.5t-5 4.5t-8 2.5t-8 1.5t-6 2q3 6 11 2t11 -3
q8 2 -4 11q-3 2 -5 3q-1 0 -4 -1q-15 -3 -16 1q0 2 5 7q-34 22 -62 40q-1 -5 3.5 -10t10 -8t14 -6.5t10.5 -4.5q-1 -5 -7 -9.5t-11 -2.5q-3 1 -6 7t-9 6q-4 -10 6.5 -14.5t11.5 -8.5t-0.5 -6t-3.5 -2t-5 0.5t-4 0.5l-3 2t-4.5 2.5t-2.5 -2.5q0 -4 7 -6t7 -6q-15 0 -36 13
q-5 4 -9 6t-10.5 2.5t-8 0.5h-12.5q17 7 17 8q12 9 13 13l1.5 4.5t-0.5 3t-1.5 2t-3.5 2.5t-4 3q-2 1 -8 5.5t-10.5 7.5t-8.5 4q-12 2 -17 -2.5t-5 -11.5t-3 -14t-12 -9h1h-1v0q-19 1 -21 -1q-2 -1 -3.5 -7t-2.5 -8q-4 -3 -11 -6t-9 -5q-20 -12 -25 -22q-4 -6 -2 -11.5t5 -9
t10 -7t12.5 -5.5t12.5 -4.5t10 -4.5q3 -1 11.5 -3.5t15 -5t8.5 -5.5t1 -11t6 -9q9 -5 14 1q2 4 2 5t-2.5 4t-2.5 5q0 7 -0.5 8t3 2t5.5 3q9 7 9.5 11t-3.5 15q-9 30 -4 34q7 2 12.5 1.5t14.5 -3.5t11 -3q4 -1 7.5 -4t6.5 -8t5 -6q9 -10 14 -10q5 1 6.5 6.5t3.5 6.5
q5 5 9.5 2.5t6.5 -5.5t5 -10q1 -2 1 -3q6 -13 19 -24q1 -1 4.5 -3.5t6 -5l5.5 -5.5t4.5 -5.5t0.5 -5.5q-1 -7 -28 -15q-11 -4 -24 -1.5t-25 -1.5t-14 -19q2 1 12 7t15 7.5t11 -1.5q2 -2 0 -7t-2 -7q3 -7 9.5 -7.5t13.5 1.5q-1 0 -2 -1q10 5 11.5 6.5t6.5 10.5q0 1 1.5 4.5
t3 6t2.5 3.5q3 3 5 4t4 0.5t2.5 -1t2.5 -3.5t3 -4q12 -15 11 -21q-29 5 -47 -7q-23 -15 -26 -16h-17v1q2 2 8.5 5.5t8.5 5.5q-2 3 -8 1l-7.5 -2.5t-7 -4.5t-6.5 -5q-5 -3 -11 -10.5t-8 -9.5l-7 -3.5t-7 -4.5q-1 -2 -3 -7t-4 -7q-1 -1 -4.5 -2t-5.5 -3q-1 -3 0.5 -7.5
t1.5 -6.5q-2 -4 -11 -10.5t-10 -6.5q1 0 2 1q-1 -1 -7 -6t-8 -9q7 -32 6 -34q-4 -12 -17 11q-2 3 -3 4q-5 7 -13 9.5t-15 1.5t-18 -3t-15 -3q-20 -2 -32.5 -21.5t-1.5 -38.5t34 -15q6 2 14 11.5t14 9.5t8.5 -2t1 -6t-3.5 -7.5t-4.5 -8t-3.5 -5.5q1 -4 0.5 -5t2 -2.5
t3.5 -1.5t5 -1q2 -1 9.5 0t8.5 -1q2 -1 3 -4.5t2 -5t3 -0.5q-7 -5 -6 -15t8 -14q3 -4 15 -3t15 0q11 -1 12 -1.5t5 4t10 8.5q4 5 11.5 2t8.5 -3q2 0 7.5 3t10.5 2q3 -1 8 -4.5t10 -3.5q2 -1 5.5 0t4.5 1q14 -2 40 -21q5 -4 9 -5t10 -2t10 -2q7 -3 15.5 -11t8.5 -15
q-1 -1 -5 -7.5t-4 -9.5h5.5t9 1t7.5 1q-7 -6 -12 -5q0 -1 9 -7q2 6 5 8t5.5 1.5t7.5 -3.5t7 -4q5 -2 16.5 -4t13.5 -2q26 -6 33 -15q10 -10 -3 -29q-3 -4 -11.5 -12.5t-10.5 -15.5q-2 -5 -2.5 -15.5t-0.5 -15.5q-2 -7 -3 -9t-5 -4.5t-7 -5.5t-4 -5.5t-7 -5.5q-3 -1 -10 -3
t-11 -4.5t-8 -7.5q1 1 1 2q-2 -3 -4 -9.5t-2 -7.5q-3 -6 -15 -19q-1 -1 -7.5 -9t-12 -15t-6.5 -6q0 2 -9.5 0.5t-9.5 1.5q1 -3 4 -5q-3 -17 -11 -22.5t-27 -5.5q1 -5 -1 -7.5t-6 -4t-6 -3.5t-4 -10t-3 -9q0 -1 -5 -8.5t-5 -8.5q0 -2 6 -9q-25 -4 -51 -7q6 8 -6 9q1 3 5.5 9
t6.5 10v3.5t1 4.5l1.5 6t0.5 3t-0.5 3t-1.5 4q-3 6 -2 14t1.5 10.5t3.5 10l5 12.5q3 11 5 35.5t4 32.5q5 30 1 42q-2 5 -7.5 9.5t-13 9.5t-9.5 8q-8 7 -26 35q-12 17 -13 20q-3 8 -3 9t2 2t2 4v11.5t3 14.5q1 5 8 13.5t8 13.5q6 19 -9 24q-2 1 -7.5 -0.5t-8.5 -1.5
q-9 2 -21 11q-4 3 -9.5 11t-10.5 11q-4 3 -10.5 3.5t-9.5 0.5q-4 2 -10 8t-9 8q-4 3 -12.5 0.5t-12.5 -1.5q-6 1 -18 7.5l-12 6.5q-25 11 -34 33q-2 6 -5 11t-9.5 12.5t-8.5 9.5q-3 3 -6.5 8.5t-5.5 8t-6.5 5t-9.5 3.5q-1 1 1 -5.5t3 -7.5q2 -5 5.5 -10t8 -10.5t6.5 -8.5
q7 -10 5 -11.5t-9 8.5q-33 44 -34 46.5t-2.5 5.5t-2.5 5.5t-4 4.5q-3 3 -10 7t-9 7q-27 24 -23 71q0 2 1.5 11t1.5 14q-2 9 -11 18q-1 1 -2.5 3.5t-2.5 4t-1 2.5q-11 17 -16 22q-10 9 -27 20q74 92 183 137q1 -6 5 -11q1 -3 3 -4.5t4.5 -2.5t3.5 -1.5t5.5 -1t6.5 -0.5
q-2 -16 -28 -13q-8 3 -19 2.5t-18 -7.5q17 -10 19 -9t2 6q22 1 35 0q2 0 8 -1.5l10 -2.5t7 0q1 1 3 6.5t3 6.5q-1 0 -5 1t-5 0q2 4 5.5 4.5t5.5 0t7.5 -3t6.5 -3.5q-8 -5 -5 -12q3 -8 12 2q9 12 -14 25q9 11 15 11t14 -12q1 4 3 5.5t3.5 1.5t6 -0.5t5.5 -0.5v2q-1 0 -5 1
t-6 1q3 5 4.5 10t3.5 7t7 4q4 1 14 1.5t17.5 2t9.5 5.5q-5 -1 -19 -3t-23.5 -4t-17.5 -6q-2 -1 -8 -5.5t-8 -5t-8 2.5q-5 5 0 12.5t12 11.5h-1q46 10 94 10q30 0 62 -4q-4 -2 -4.5 -5t-2.5 -5q-8 -5 -39 -18q3 0 18.5 -2.5t25.5 -1t13 10.5q-4 1 -14 2q13 9 29 15
q141 -28 240 -133h-1v0zM922 516q0 1 1.5 2t2.5 2q0 1 1 4t2 4.5t4 3t4 2.5t2 3q11 -32 18 -66h-0.5h-0.5q-2 -2 -9 -2q-5 0 -13 6.5t-11 11.5q-2 2 -1 15l-0.5 7t0.5 7v0zM928 281q-18 16 -26 28q-3 5 -3.5 10t0.5 13t1 11q0 2 -1.5 17t1.5 17q1 2 4.5 4.5t3.5 4.5
q2 3 4 8.5t4 9.5q3 4 9.5 8t8.5 5q3 3 4.5 5.5t3 6t2.5 5.5q7 12 16 19q5 -34 5 -69q0 -59 -15 -117q-8 2 -22 14v0zM928 281z" />
    <glyph glyph-name="map" unicode="&#xe897;" 
d="M1024 -128h-1024l128 256h229q33 -35 65 -64h-254l-64 -128h816l-64 128h-254q32 29 65 64h229zM192 577q0 87 43 160.5t116.5 116t160.5 42.5t160.5 -42.5t116.5 -116t43 -160.5q0 -179 -211 -408q-60 -64 -109 -105q-7 6 -18.5 16t-44.5 42.5t-63.5 66t-67 83
t-63.5 96.5t-45 103t-18 106zM256 577q0 -54 25.5 -117t67 -121t81.5 -104t82 -85q42 39 82 85t81.5 104t67 121t25.5 117q0 105 -75 180t-181 75t-181 -75t-75 -180zM512 448q-53 0 -90.5 37.5t-37.5 90.5t37.5 90.5t90.5 37.5t90.5 -37.5t37.5 -90.5t-37.5 -90.5
t-90.5 -37.5zM511.5 512q26.5 0 45.5 19t19 45.5t-19 45t-45.5 18.5t-45 -18.5t-18.5 -45t18.5 -45.5t45 -19z" />
    <glyph glyph-name="rocket" unicode="&#xe64c;" 
d="M959 759q-3 -119 -50 -240q-56 -144 -162 -240q-8 -8 -7 -19q1 -12 3.5 -37t3.5 -37q9 -89 -61 -139q-39 -28 -154 -103q-25 -16 -49.5 -4.5t-27.5 40.5q-5 52 -11 133q-1 17 -3.5 20.5t-18.5 5.5q-88 11 -133 84q-22 35 -27 82q-1 11 -13 12q-83 4 -139 9
q-29 2 -41 26.5t4 50.5l45 70q6 10 22.5 36t25.5 40q46 71 127 72q13 0 94 -9q9 -1 14 5q103 113 265 172q86 31 177 40q55 5 92 -1q13 -3 15.5 -5.5t4.5 -14.5q5 -30 4 -49v0zM784 555q0 41 -29 71t-70 31q-43 1 -74 -28t-32 -75q0 -39 30.5 -70t70.5 -31q43 0 73 29.5
t31 72.5v0zM181 243q20 0 27 -20q29 -82 105 -124q16 -9 35 -16q17 -5 20 -19t-9 -26l-36.5 -36.5l-36.5 -36.5q-13 -13 -28 -7q-16 6 -17 24q0 4 -0.5 12t-0.5 10q0 11 -1.5 12t-11.5 -2q-13 -4 -40.5 -13t-40.5 -14q-15 -5 -24 1q-18 10 -11 32q5 17 15.5 48t11.5 35
q3 9 2 11t-11 2h-9.5h-14.5q-17 1 -23 17q-6 15 6 27q22 23 76 76q8 8 17 7v0z" />
    <glyph glyph-name="close" unicode="&#xe601;" 
d="M512 -128q-95 0 -182 35q-84 34 -149 96q-64 61 -100 142q-37 83 -37 175q0 117 60 219q58 98 157 158q11 7 23.5 4t19.5 -14t4 -23.5t-14 -19.5q-87 -52 -137 -137q-51 -87 -51 -188q0 -76 30.5 -146.5t87.5 -124.5q58 -55 132 -84.5t155.5 -29.5t156 29.5t131.5 84.5
q58 54 88.5 124.5t30.5 147.5q0 97 -49 182.5t-135 139.5q-11 7 -14 19.5t4 23.5t19.5 14t23.5 -4q98 -61 155 -159q58 -101 58 -217q0 -91 -37 -174q-36 -81 -100.5 -142.5t-148.5 -95.5q-87 -35 -182 -35zM512 390q-13 0 -22 9t-9 22v444q0 13 9 22t22 9t22 -9t9 -22v-444
q0 -13 -9 -22t-22 -9z" />
    <glyph glyph-name="renew" unicode="&#xe602;" 
d="M453 297q17 14 3 38q-24 35 -89 118v12h65q19 0 19 21q0 18 -19 18h-65v98q43 10 58 14q19 7 17 28q-7 18 -28 14q-67 -17 -151 -21q-23 -3 -23 -23q2 -21 25 -21q11 0 30 2q23 0 31 2v-93h-84q-21 0 -23 -18q0 -21 21 -21h74q-30 -79 -88 -163q-14 -18 2 -35
q16 -11 35 7q44 67 63 114v-253q2 -17 21 -17q20 3 20 19v246q24 -30 52 -76q16 -21 34 -10zM481 604v-425h-39q-21 0 -26 -21q3 -21 23 -21h339q19 0 21 21q-2 21 -21 21h-37v430q0 44 -44 44h-165q-56 5 -51 -49zM697 588v-93h-172v93q-1 12 3.5 17t15.5 4h130
q25 2 23 -21zM697 453v-111h-172v111h172zM697 300v-121h-172v121h172zM512 -128q-104 0 -199 40q-92 39 -163 110t-110 163q-40 95 -40 199t40 199q39 92 110 163t163 110q95 40 199 40t199 -40q92 -39 163 -110t110 -163q40 -95 40 -199q0 -142 -73 -263q-6 -10 -18 -13.5
t-23 3t-14 19t3 23.5q64 106 64 231q0 92 -35 176q-35 81 -97 143q-62 63 -143 97q-85 35 -176 35q-92 0 -176 -35q-81 -35 -143 -97q-63 -62 -97 -143q-35 -84 -35 -176t35 -175q35 -82 97 -144q63 -62 143 -97q84 -35 176 -35q139 0 253 78q11 7 23.5 4.5t19.5 -13
t4.5 -23t-12.5 -19.5q-130 -88 -288 -88z" />
    <glyph glyph-name="map-b" unicode="&#xe603;" 
d="M512 -128q-11 0 -20 7q-10 9 -11 21.5t8 22.5q113 138 182 236q79 113 124 201q54 105 54 162q0 129 -98 221q-99 92 -239 92t-239 -92q-98 -92 -98 -221q0 -71 81 -212q62 -107 164 -242q7 -10 5.5 -22.5t-11.5 -20.5t-23 -6t-20 12q-105 139 -168 249q-89 155 -89 243
q0 76 31 146q31 67 86 118q57 53 129.5 81t152 28t152 -28t128.5 -81q55 -51 86 -118q31 -70 31 -147q0 -72 -60 -190q-47 -92 -129 -208q-15 -21 -30.5 -42.5t-30 -40.5t-28.5 -37.5t-26 -34t-23 -29t-19.5 -24t-15 -18t-10 -11.5l-3.5 -4q-9 -11 -23 -11zM512 291
q-78 0 -133 56.5t-55 136.5t55 137t133 57t133 -56.5t55 -137t-55 -137t-133 -56.5zM511.5 617q-52.5 0 -89.5 -39t-37 -94t37 -93.5t89.5 -38.5t90 38.5t37.5 93.5t-37.5 94t-90 39z" />
    <glyph glyph-name="void" unicode="&#xe604;" 
d="M930 -128h-836q-39 0 -66.5 27.5t-27.5 66.5v643q0 14 10 24t24 10t24 -10t10 -24v-643q0 -11 7.5 -18.5t18.5 -7.5h836q11 0 18.5 7.5t7.5 18.5v836q0 11 -7.5 18.5t-18.5 7.5h-836q-11 0 -18.5 -7.5t-7.5 -18.5q0 -14 -10 -24t-24 -10t-24 10t-10 24q0 39 27.5 66.5
t66.5 27.5h836q39 0 66.5 -27.5t27.5 -66.5v-836q0 -39 -27.5 -66.5t-66.5 -27.5zM300 52q-19 0 -29 16q-8 12 -5 25.5t15 21.5l204 132l-197 84q-19 8 -20.5 29.5t17.5 31.5l288 160l-539 213q-14 6 -19.5 19t0 26t18.5 18.5t26 0.5l606 -241q21 -8 22 -29q1 -22 -18 -32
l-290 -161l192 -81q19 -8 21 -28.5t-16 -31.5l-258 -167q-8 -6 -18 -6v0z" />
    <glyph glyph-name="del" unicode="&#xe605;" 
d="M752 -128h-480q-63 0 -107.5 41.5t-44.5 100.5v671q0 13 9 21.5t21.5 8.5t21.5 -8.5t9 -21.5v-671q0 -34 26.5 -58t63.5 -24h481q38 0 64.5 24t26.5 58v318q0 13 9 22t21.5 9t21 -9t8.5 -22v-318q1 -59 -43.5 -100.5t-107.5 -41.5zM873.5 567q-12.5 0 -21.5 9t-9 21v88
q0 13 9 21.5t21.5 8.5t21 -8.5t8.5 -21.5v-88q1 -13 -8 -21.5t-21.5 -8.5zM964 685h-904q-12 0 -21 9t-9 21.5t9 21t21 8.5h904q12 0 21 -8.5t9 -21t-9 -21.5t-21 -9zM512 685q-25 0 -42.5 18t-17.5 42v91q0 25 17.5 42.5t42.5 17.5t42.5 -17.5t17.5 -42.5v-90
q0 -25 -17.5 -43t-42.5 -18zM361.5 23q-12.5 0 -21.5 8.5t-9 21.5v542q0 12 9 21t21.5 9t21.5 -9t9 -21v-542q0 -13 -9 -21.5t-21.5 -8.5zM662.5 23q-12.5 0 -21.5 8.5t-9 21.5v542q0 12 9 21t21.5 9t21.5 -9t9 -21v-542q0 -13 -9 -21.5t-21.5 -8.5z" />
    <glyph glyph-name="edit-b" unicode="&#xe606;" horiz-adv-x="1025" 
d="M932 -128h-839q-38 0 -65.5 27.5t-27.5 65.5v837q0 39 27.5 66t65.5 27h559q13 0 22 -9t9 -22t-9 -22t-22 -9h-528q-25 0 -43.5 -18t-18.5 -44v-775q0 -26 18.5 -44t43.5 -18h777q26 0 44 18t18 44v558q0 13 9 22t22 9t22 -9t9 -22v-589q0 -38 -27.5 -65.5t-65.5 -27.5z
M425 283q-9 -9 -22 -9t-22 9t-9 21.5t9 22.5l558 560q9 9 22 9t22 -9t9 -22t-9 -22z" />
    <glyph glyph-name="search" unicode="&#xe607;" 
d="M443 -16q-90 0 -172 34q-80 34 -141 95t-95 140q-35 82 -35 172t35 172q33 79 94.5 140.5t141.5 94.5q82 35 172 35t172 -35q80 -34 141 -95t95 -140q35 -82 35 -172q0 -80 -28 -155q-27 -72 -78 -131q-7 -9 -19.5 -10t-21.5 7t-10 20t7 21q44 51 67 114q25 64 25 134
q0 77 -29.5 147t-83.5 124t-124.5 83t-147.5 29t-147 -29t-124.5 -83t-84 -124t-29.5 -146.5t29 -146.5t83.5 -124.5t125 -83.5t147.5 -29q90 0 170 40q11 5 22.5 1t17 -15t1.5 -22t-15 -17q-92 -45 -196 -45zM995 -99q-12 0 -21 8l-232 224q-9 8 -9.5 20t8 21t20.5 9t21 -8
l233 -224q9 -8 9 -20t-8 -21q-9 -9 -21 -9z" />
    <glyph glyph-name="return" unicode="&#xe60b;" 
d="M512 -127q-105 0 -199 40q-93 39 -163 110q-71 70 -110 162q-40 95 -40 199t40 200q39 92 110 162q71 71 163 110q95 40 199 40t199 -40q92 -39 163 -110q70 -71 109 -163q40 -95 40 -199q0 -141 -72 -262q-6 -11 -18.5 -14t-23 3.5t-14 18.5t3.5 23q64 106 64 231
q0 92 -36 176q-34 80 -96 143q-62 62 -144 97q-84 35 -175.5 35t-175.5 -35q-81 -35 -143.5 -97.5t-96.5 -142.5q-35 -84 -35 -176t35 -175q34 -81 97 -144q62 -62 143 -96q84 -36 176 -36q139 0 253 78q11 7 23 5t19.5 -12.5t5 -23t-12.5 -19.5q-131 -88 -288 -88zM544 186
h-162q-13 0 -22 8.5t-9 21t9 21.5t22 9h162q44 0 74.5 31t30.5 74q0 44 -30.5 74.5t-73.5 30.5h-163q-13 0 -22 9t-9 21.5t9 21.5t22 9h162q69 0 117 -49q49 -48 49 -117t-49 -117q-48 -48 -117 -48zM409 595v-217l-108 109z" />
    <glyph glyph-name="change" unicode="&#xe60c;" 
d="M545 -128h-390q-39 0 -66 27.5t-27 66.5v836q0 39 27.5 66.5t65.5 27.5h701q39 0 66 -27.5t27 -66.5v-464q0 -14 -10 -24t-24 -10t-24 10t-10 24v464q0 10 -7.5 18t-17.5 8h-701q-10 0 -17.5 -8t-7.5 -18v-836q0 -11 7 -18.5t18 -7.5h389q15 0 25 -10t10 -24t-10 -24
t-24 -10zM769 559h-527q-14 0 -24 10t-10 24t10 24t24 10h527q14 0 24 -10t10 -24t-10 -24t-24 -10zM535 380h-293q-14 0 -24 10t-10 24t10 24t24 10h293q14 0 24 -10t10 -24t-10 -24t-24 -10zM740 -68q-87 0 -148.5 62.5t-61.5 150.5q0 14 10 24t24 10t24 -10t10 -24
q0 -60 41.5 -102.5t100.5 -42.5q29 0 57 12q13 6 26 1t19 -17.5t1 -26t-18 -19.5q-41 -18 -85 -18zM915 111q-14 0 -24 10t-10 24q0 60 -41.5 102.5t-99.5 42.5q-28 0 -54 -11q-13 -5 -26 0t-19 18t-0.5 26t18.5 19q39 16 81 16q87 0 148 -62.5t61 -150.5q0 -14 -10 -24
t-24 -10zM681 230h-58q-19 0 -29 16t-2 34l29 59q10 19 31 19t30 -19l30 -59q8 -17 -2 -34q-10 -16 -29 -16zM827 -78h-1q-19 1 -29 17l-29 51q-9 16 -0.5 33t27.5 18l67 5q21 1 31.5 -17.5t-1.5 -35.5l-37 -56q-10 -15 -28 -15z" />
    <glyph glyph-name="reminders" unicode="&#xe60d;" 
d="M512 -128q-85 0 -162 33q-74 32 -131.5 90.5t-88.5 134.5q-33 79 -33 164.5t33 163.5q31 76 88.5 134.5t131.5 90.5q78 33 162 33q104 0 194 -49q12 -6 16 -19t-2.5 -24.5t-19 -15.5t-24.5 3q-77 41 -164 41q-70 0 -134 -27t-114 -77q-103 -105 -103 -254t103 -254
q50 -50 114 -77t134 -27t134 27t114 77q103 105 103 254q0 114 -65 207q-8 11 -5.5 24t13.5 20.5t24 5.5t20 -13q76 -110 76 -244q0 -86 -32 -164q-31 -76 -88.5 -134.5t-131.5 -90.5q-78 -33 -162 -33zM659 832h-294q-13 0 -22.5 9.5t-9.5 22.5t9.5 22.5t22.5 9.5h294
q13 0 22.5 -9.5t9.5 -22.5t-9.5 -22.5t-22.5 -9.5zM512 322q-13 0 -22.5 9.5t-9.5 22.5v480q0 13 9.5 22.5t22.5 9.5t22.5 -9.5t9.5 -22.5v-480q0 -13 -9.5 -22.5t-22.5 -9.5z" />
    <glyph glyph-name="money-a" unicode="&#xe60e;" 
d="M512 -128q-13 0 -22 9q-52 52 -90 77q-11 7 -13.5 19.5t4.5 23.5t19.5 13.5t23.5 -4.5q32 -21 78 -64q51 47 85 67q11 7 23.5 4t19 -14t3.5 -23.5t-14 -19.5q-6 -4 -13 -9t-14 -10.5t-14.5 -11.5t-14 -11.5t-12.5 -11t-11 -10t-8.5 -8l-5.5 -5.5l-2 -2q-9 -9 -22 -9z
M282 15q-9 0 -17 5q-101 64 -159 169q-61 108 -61 233q0 96 37 184q35 85 99.5 151t148.5 102q87 37 182 37t182 -37q83 -36 148 -102t100 -151q36 -88 36 -184q0 -123 -59 -231q-57 -103 -156 -168q-11 -7 -23.5 -4.5t-19.5 13.5t-4.5 23.5t13.5 19.5q86 56 136 147
q51 92 51 200q0 83 -30.5 158t-88 133.5t-131.5 89.5t-155 31t-154.5 -31t-130.5 -90q-57 -58 -88 -133t-31 -158q0 -108 53 -203q51 -91 138 -146q11 -7 14 -19.5t-4 -23.5q-9 -15 -26 -15zM730 481q11 0 19 7.5t8 18.5t-8 19t-19 8h-147l89 105q7 8 6 19t-9.5 18t-19.5 6
t-18 -9l-117 -139h11l-117 139q-7 8 -18 9t-19.5 -6t-9.5 -18t6 -19l89 -105h-147q-11 0 -19 -8t-8 -19t8 -18.5t19 -7.5h182v-126h-182q-11 0 -19 -7.5t-8 -18.5t8 -18.5t19 -7.5h182v-144q0 -11 7.5 -18.5t18.5 -7.5t19 7.5t8 18.5v144h186q12 0 19.5 7.5t7.5 18.5
t-7.5 19t-19.5 8h-186v125h186z" />
    <glyph glyph-name="detail" unicode="&#xe60f;" 
d="M870 -128h-96q-14 0 -24 10t-10 24t10 24t24 10h96q36 0 61 25t25 61v716q0 36 -25 61t-60 25h-718q-35 0 -60 -25t-25 -60v-718q0 -35 25.5 -60t60.5 -25h319q14 0 24 -10t10 -24t-10 -24t-24 -10h-319q-64 0 -109 45t-45 108v718q0 63 45 108t108 45h718q63 0 108 -45
t45 -109v-716q0 -64 -45 -109t-109 -45zM781 619h-538q-14 0 -24 10t-10 24t10 24t24 10h538q14 0 24 -10t10 -24t-10 -24t-24 -10zM781 380h-538q-14 0 -24 10t-10 24t10 24t24 10h538q14 0 24 -10t10 -24t-10 -24t-24 -10zM482 141h-239q-14 0 -24 10t-10 24t10 24t24 10
h239q14 0 24 -10t10 -24t-10 -24t-24 -10z" />
    <glyph glyph-name="print-view" unicode="&#xe610;" 
d="M771 -128h-617q-64 0 -109 45t-45 108v718q0 63 45 108t108 45h718q63 0 108 -45t45 -109v-589q0 -14 -10 -24t-24 -10t-24 10t-10 24v590q0 35 -25 60t-60 25h-718q-35 0 -60 -25t-25 -60v-718q0 -35 25.5 -60t60.5 -25h617q14 0 24 -10t10 -24t-10 -24t-24 -10z
M512 111q-113 0 -193 80t-80 193t80 193t193 80t193 -80t80 -193t-80 -193t-193 -80zM512 589q-85 0 -145 -60t-60 -145t60 -145t145 -60t145 60t60 145t-60 145t-145 60zM841 21q-14 0 -24 10l-159 156q-10 10 -10 24t10 24t24 10t24 -10l158 -155q10 -10 10.5 -24
t-9.5 -24.5t-24 -10.5z" />
    <glyph glyph-name="withdraw" unicode="&#xe611;" 
d="M396 -64q-37 0 -75 43l-295 336q-26 29 -26 69t26 69l295 336q21 25 42 35q28 14 53 5q45 -18 45 -93v-18q0 -13 -9 -22.5t-22.5 -9.5t-23 9.5t-9.5 22.5v18q0 21 -4 31q-10 -4 -24 -20l-295 -336q-10 -11 -10 -27t10 -27l295 -336q14 -16 24 -20q4 10 4 31v240
q0 14 9.5 23t23 9t22.5 -9t9 -23v-240q0 -33 -9 -55q-11 -28 -36 -38q-10 -3 -20 -3zM992 54q-9 0 -17 4q-169 103 -259 135q-100 35 -284 50q-14 1 -22.5 11t-7 23.5t11.5 22t23 7.5q193 -16 300 -54q83 -29 200 -97q-44 126 -115 214q-74 91 -173 138q-49 24 -103.5 35.5
t-75 11.5h-34.5h-1q-13 -2 -23 6.5t-11.5 21.5t7 23.5t21.5 11.5q5 1 15 1.5t36 -1.5t53 -6t65.5 -15.5t74.5 -28.5q114 -54 197 -156q103 -126 153 -318q5 -21 -12 -34q-8 -6 -19 -6z" />
    <glyph glyph-name="print-a" unicode="&#xe612;" 
d="M246.5 407q-14.5 0 -24.5 10t-10 24v315q0 58 38.5 99t92.5 41h87q14 0 24 -10t10 -24t-10 -24t-24 -10h-87q-24 0 -43 -20q-19 -21 -19 -52v-315q0 -14 -10 -24t-24.5 -10zM777.5 409q-14.5 0 -24.5 10t-10 24v312q0 30 -18 51.5t-44 21.5h-68q-14 0 -24 10t-10 24
t10 24t24 10h68q54 0 92.5 -41.5t38.5 -99.5v-312q0 -14 -10 -24t-24.5 -10zM698 642h-372q-14 0 -24 10t-10 24t10 24t24 10h372q14 0 24 -10t10 -24t-10 -24t-24 -10zM698 536h-372q-14 0 -24 10t-10 24t10 24t24 10h372q14 0 24 -10t10 -24t-10 -24t-24 -10zM853 84h-682
q-71 0 -121 50t-50 121v46q0 70 50 120t121 50h682q71 0 121 -50t50 -120v-46q0 -71 -50 -121t-121 -50zM171 403q-43 0 -73 -30t-30 -72v-46q0 -42 30 -72t73 -30h682q43 0 73 30t30 72v46q0 42 -30 72t-73 30h-682zM724 -128h-424q-59 0 -100 41t-41 100v105h68v-105
q0 -30 21.5 -51.5t51.5 -21.5h424q30 0 51 21t21 51v107h69v-107q0 -58 -41.5 -99t-99.5 -41z" />
    <glyph glyph-name="add" unicode="&#xe613;" 
d="M788 348h-541q-12 0 -21 8.5t-9 21.5t9 21.5t21 8.5h541q13 0 22 -8.5t9 -21.5t-9 -21.5t-22 -8.5zM517.5 77q-12.5 0 -21.5 9t-9 21v542q0 12 9 21t21.5 9t21.5 -9t9 -21v-542q0 -12 -9 -21t-21.5 -9zM512 -128q-104 0 -199 40q-92 39 -163 110q-70 71 -109 163
q-41 95 -41 199t41 200q39 92 109 162q72 71 163 110q95 40 199 40q105 0 200 -40q92 -39 162 -110q71 -71 110 -163q40 -95 40 -199q0 -142 -72 -263q-7 -11 -19 -14t-23 3.5t-14 19t4 23.5q64 106 64 231q0 92 -36 175q-34 81 -96 144q-63 62 -144 97q-83 35 -176 35
q-91 0 -175 -35q-81 -35 -144 -97q-62 -63 -96 -144q-36 -83 -36 -175t36 -176q34 -80 96 -143q63 -62 144 -97q83 -35 176 -35q139 0 253 78q10 7 22.5 4.5t19.5 -13t5 -23t-13 -19.5q-130 -88 -288 -88z" />
    <glyph glyph-name="edit" unicode="&#xe614;" 
d="M319 266q-13 0 -21.5 9t-8.5 22t9 21l216 217q9 9 21.5 9t21.5 -9t9 -21.5t-9 -21.5l-216 -217q-9 -9 -22 -9zM589.5 537q-12.5 0 -21.5 9t-9 21.5t9 21.5l54 54q9 9 21.5 9t21.5 -9t9 -21.5t-9 -21.5l-54 -54q-9 -9 -21.5 -9zM752 158h-541q-13 0 -22 9t-9 21.5t9 21.5
t22 9h541q12 0 21 -9t9 -21.5t-9 -21.5t-21 -9zM512 -128q-105 0 -199 40q-92 39 -163 110t-110 163q-40 95 -40 199t40 199q39 92 110 163t163 110q95 40 199 40t199 -40q92 -39 163 -110t110 -163q40 -95 40 -199q0 -142 -73 -263q-6 -11 -18.5 -14t-23 3.5t-13.5 19
t3 23.5q64 106 64 231q0 92 -35 175q-34 81 -97 144q-62 62 -143 97q-84 35 -176 35t-176 -35q-81 -35 -143 -97q-63 -63 -97 -143q-35 -84 -35 -176t35 -175q34 -81 97 -143.5t143 -97.5q84 -35 176 -35q139 0 253 78q11 7 23.5 4.5t19.5 -13t4.5 -22.5t-12.5 -19
q-130 -89 -288 -89z" />
    <glyph glyph-name="finance-b" unicode="&#xe616;" 
d="M871 -128h-718q-63 0 -108 45t-45 109v477q0 64 45 109t108 45h158q14 0 24 -10t10 -24t-10 -23.5t-24 -9.5h-158q-35 0 -60 -25.5t-25 -61.5v-477q0 -36 25 -61t60 -25h718q35 0 60 25t25 61v477q0 36 -25 61t-61 25h-187q-14 0 -24 10t-10 24t10 24t24 10h187
q64 0 109 -45t45 -109v-477q0 -64 -45 -109t-108 -45zM870 709h-716q-15 0 -25 10t-10 24t10 23.5t25 9.5h716q14 0 24 -9.5t10 -23.5t-9.5 -24t-24.5 -10zM751 828h-478q-14 0 -24 10t-10 24t10 24t24 10h478q14 0 24 -10t10 -24t-10 -24t-24 -10zM710 310q11 0 18.5 7.5
t7.5 18t-7.5 18t-18.5 7.5h-143l86 101q7 8 6 18.5t-9 17t-19 6t-18 -8.5l-114 -134h11l-114 134q-7 8 -17.5 8.5t-19 -6t-9.5 -17t6 -18.5l86 -101h-143q-11 0 -18.5 -7.5t-7.5 -18t7.5 -18t18.5 -7.5h178v-120h-178q-11 0 -18.5 -7.5t-7.5 -18t7.5 -18t18.5 -7.5h178v-138
q0 -11 7.5 -18t18 -7t18 7t7.5 18v138h182q11 0 18.5 7.5t7.5 18t-7.5 18t-18.5 7.5h-182v120h182z" />
    <glyph glyph-name="dictionary" unicode="&#xe617;" 
d="M145 542q-2 7 2 13t11 8q38 8 77 12q99 10 172 -11q7 -2 10 -8.5t1 -13.5q-2 -6 -8 -9t-12 -1q-98 27 -234 -2q-6 -1 -11.5 2.5t-7.5 9.5zM145 406q-2 7 2 13t11 8q38 8 77 12q99 9 172 -11q7 -2 10 -8.5t1 -13.5q-2 -6 -8 -9t-12 -2q-98 28 -234 -1q-6 -1 -11.5 2.5
t-7.5 9.5zM145 280q-2 7 2 13t11 8q38 8 77 12q99 9 172 -11q7 -2 10 -8.5t1 -13.5q-2 -6 -8 -9t-12 -1q-98 27 -234 -2q-6 -1 -11.5 2.5t-7.5 9.5zM616 542q-2 7 1.5 13t10.5 8q39 8 78 12q99 10 172 -11q6 -2 9.5 -8.5t1.5 -13.5q-2 -6 -8 -9t-12 -1q-98 27 -234 -2
q-6 -1 -11.5 2.5t-7.5 9.5zM616 406q-2 7 1.5 13t10.5 8q39 8 78 12q99 9 172 -11q6 -2 9.5 -8.5t1.5 -13.5q-2 -6 -8 -9t-12 -2q-98 28 -234 -1q-6 -1 -11.5 2.5t-7.5 9.5zM616 280q-2 7 1.5 13t10.5 8q39 8 78 12q99 9 172 -11q6 -2 9.5 -8.5t1.5 -13.5q-2 -6 -8 -9
t-12 -1q-98 27 -234 -2q-6 -1 -11.5 2.5t-7.5 9.5zM533 17q-21 0 -36.5 15.5t-15.5 37.5v612q0 17 9.5 30.5t24.5 19.5q62 22 143 32q46 6 93 6q49 0 98 -6q72 -10 139 -32q16 -5 26 -19t10 -31v-167q0 -12 -9 -21t-22 -9t-22 9t-9 21v161q-59 19 -121 27q-44 6 -90 6
q-43 0 -85 -6q-69 -8 -123 -27v-593q81 27 193 27t227 -24v187q0 13 9 22t21.5 9t21.5 -9t9 -22v-198q0 -22 -15.5 -37.5t-36.5 -15.5q-7 0 -12 1q-112 26 -224 26q-109 0 -184 -29q-10 -3 -19 -3zM52 17q-21 0 -36.5 15.5t-15.5 37.5v612q0 17 9.5 30.5t24.5 19.5
q104 38 236 38q122 0 237 -38q16 -5 26 -19t10 -31v-607q0 -22 -15.5 -37.5t-36.5 -15.5q-7 0 -12 1q-112 26 -224 26q-109 0 -184 -29q-10 -3 -19 -3zM61 676v-593q82 27 194 27t227 -24v590q-103 33 -212 33q-114 0 -209 -33z" />
    <glyph glyph-name="history" unicode="&#xe618;" 
d="M512 -128q-104 0 -199 40q-92 39 -163 110t-110 163q-40 95 -40 199t40 199q39 92 110 163t163 110q95 40 199 40q159 0 290 -90q10 -7 12.5 -19.5t-4.5 -22.5t-19.5 -12.5t-22.5 4.5q-116 80 -256 80q-92 0 -176 -36q-81 -34 -143.5 -96.5t-96.5 -143.5
q-36 -84 -36 -176t36 -176q34 -81 96.5 -143.5t143.5 -96.5q84 -36 176 -36t176 36q81 34 143.5 96.5t96.5 143.5q36 84 36 176q0 93 -37 178q-5 12 0 23.5t16 16.5t23 0t17 -16q41 -96 41 -202q0 -104 -40 -199q-39 -92 -110 -163t-163 -110q-95 -40 -199 -40zM515.5 350
q-12.5 0 -21.5 9t-9 22v318q0 13 9 22t21.5 9t21.5 -9t9 -22v-318q0 -13 -9 -22t-21.5 -9zM729 162q-12 0 -20 8l-213 187q-9 8 -10 20.5t7.5 22t21 10t21.5 -7.5l213 -187q9 -9 10 -21.5t-8 -21.5q-9 -10 -22 -10z" />
    <glyph glyph-name="refund" unicode="&#xe619;" 
d="M694 424q11 0 18.5 7.5t7.5 17.5t-7.5 17.5t-18.5 7.5h-142l85 98q7 8 6 18t-9 16.5t-18.5 5.5t-17.5 -9l-113 -130h10l-113 130q-7 8 -17.5 9t-18.5 -5.5t-9 -17t6 -17.5l85 -99h-142q-11 0 -18.5 -7t-7.5 -17t7.5 -17.5t18.5 -7.5h176v-117h-176q-11 0 -18.5 -7
t-7.5 -17.5t7.5 -17.5t18.5 -7h176v-134q0 -11 7.5 -18t18 -7t18 7t7.5 18v134h181q11 0 18.5 7t7.5 17.5t-7.5 17.5t-18.5 7h-181v117h181zM490 -102q-100 0 -191 38q-88 37 -155.5 104t-104.5 155q-39 91 -39 189q0 99 39 190q37 87 105 154q67 67 155 104q91 39 191 39
q154 0 280 -88q123 -85 177 -224q5 -12 -0.5 -23.5t-17 -16t-23 0.5t-16.5 17q-47 121 -155 196q-110 77 -245 77q-87 0 -167 -34q-77 -32 -137 -91q-59 -59 -91 -135q-34 -80 -34 -166q0 -87 34 -166q32 -76 91.5 -135t136.5 -91q80 -34 167 -34q142 0 256 84q54 40 93 94
q40 55 60 119q4 12 15 18t23 2t18 -15t2 -23q-23 -73 -69 -136q-45 -62 -106 -108q-130 -95 -292 -95zM933 463l-156 90l247 66z" />
    <glyph glyph-name="open" unicode="&#xe61a;" 
d="M512 -107q-104 0 -199 38q-92 37 -163 104q-70 68 -110 156q-40 91 -40 191q0 128 65 239q64 108 173 174q12 7 25.5 4t21 -15.5t4 -26t-15.5 -20.5q-94 -58 -149 -150q-56 -95 -56 -205q0 -84 33.5 -161t96.5 -136q63 -60 144 -92t170 -32t170 32t144 92q63 59 96.5 136
t33.5 161q0 106 -53.5 199.5t-147.5 152.5q-12 8 -15.5 21.5t4 25.5t21.5 15.5t26 -4.5q107 -66 169 -173q64 -110 64 -237q0 -100 -40 -191q-39 -88 -110 -156q-71 -67 -163 -104q-96 -38 -199 -38zM512 322q-14 0 -24 10t-10 24v486q0 14 10 24t24 10t24 -10t10 -24v-486
q0 -14 -10 -24t-24 -10z" />
    <glyph glyph-name="receipt" unicode="&#xe61b;" 
d="M726 513q11 0 19 8t8 18.5t-8 18t-19 7.5h-149l89 104q8 8 7 19t-10 18t-20 6t-18 -9l-118 -138h10l-118 138q-7 8 -18 9t-20 -6t-9.5 -18t6.5 -19l89 -104h-149q-11 0 -19 -7.5t-8 -18t8 -18.5t19 -8h185v-123h-185q-11 0 -19 -7.5t-8 -18.5t8 -18.5t19 -7.5h185v-142
q0 -11 8 -18.5t19 -7.5t19 7.5t8 18.5v142h189q11 0 19 7.5t8 18t-8 18.5t-19 8h-189v123h189zM512 -95v0q-38 0 -65 25l-407 361q-23 20 -33 40q-12 26 -3 50q8 23 35 34q21 9 51 9h59v348q0 38 26.5 64t63.5 26h554q37 0 63.5 -26t26.5 -64v-52q0 -12 -9 -21t-21.5 -9
t-21.5 9t-9 21v52q0 13 -8.5 21.5t-20.5 8.5h-554q-12 0 -21 -9t-9 -21v-378q0 -13 -8.5 -21.5t-21.5 -8.5h-88q-20 0 -30 -5q4 -10 19 -23l407 -361q10 -9 25 -9t25 9l407 361q15 14 19 23q-10 5 -30 5h-81q-12 0 -21 8.5t-9 21.5v107q0 13 9 22t21.5 9t21 -9t8.5 -22v-77
h51q31 0 52 -9q27 -11 35 -34q9 -24 -3 -49q-10 -21 -33 -41l-407 -361q-27 -25 -65 -25z" />
    <glyph glyph-name="lie" unicode="&#xe61c;" 
d="M767 -81h-35q-13 0 -22 8.5t-9 21t9 21.5t22 9h35q34 0 59 24q24 24 24 59v482h-676v-482q0 -34 24.5 -58.5t58.5 -24.5h196q13 0 22 -9t9 -21.5t-9 -21t-22 -8.5h-196q-59 0 -101 42t-42 101v512q0 13 8.5 21.5t21.5 8.5h736q13 0 21.5 -8.5t8.5 -21.5v-512
q0 -59 -42 -101t-101 -42zM993 544h-962q-13 0 -22 9t-9 21.5t9 21t22 8.5h962q13 0 22 -8.5t9 -21t-9 -21.5t-22 -9zM137 531q-10 0 -18 7q-10 7 -11.5 19.5t6.5 22.5l182 234q38 48 104 50q61 2 114 -39l347 -218q11 -7 13.5 -19t-4 -22.5t-18.5 -13.5t-23 4l-348 219
l-2 2q-37 28 -77 27q-38 -1 -58 -27l-183 -234q-9 -12 -24 -12zM850 568q-22 0 -29 21l-48 167q-1 2 -1 3q-3 18 -14 28q-9 8 -19 6l-199 -31q-13 -2 -23 5.5t-12 19.5t5.5 22t19.5 12l200 32q37 6 67 -20q27 -24 34 -62l48 -164q4 -12 -2 -23t-18 -15q-4 -1 -9 -1zM569 402
h-340q-13 0 -21.5 9t-8.5 21.5t8.5 21t21.5 8.5h340q12 0 21 -8.5t9 -21t-9 -21.5t-21 -9zM399 232h-170q-13 0 -21.5 8.5t-8.5 21t8.5 21.5t21.5 9h170q12 0 21 -9t9 -21.5t-9 -21t-21 -8.5z" />
    <glyph glyph-name="rent" unicode="&#xe608;" 
d="M541 -128h-398q-37 0 -64 27t-27 65v838q0 38 27 65t65 27h714q38 0 65 -27t27 -65v-465q0 -14 -9 -23t-22.5 -9t-23 9t-9.5 23v465q0 11 -8 19.5t-20 8.5h-714q-12 0 -20 -8t-8 -20v-838q0 -12 8 -20t19 -8h398q13 0 22.5 -9.5t9.5 -22.5t-9.5 -22.5t-22.5 -9.5z
M769 561h-536q-13 0 -22.5 9.5t-9.5 22.5t9.5 22.5t22.5 9.5h537q13 0 22 -9.5t9 -22.5t-9 -22.5t-23 -9.5zM531 381h-298q-13 0 -22.5 9.5t-9.5 22.5t9.5 22.5t22.5 9.5h298q13 0 22.5 -9.5t9.5 -22.5t-9.5 -22.5t-22.5 -9.5zM583 -36q-9 0 -15.5 5.5t-6.5 14.5v20
q0 8 6.5 13.5t15.5 5.5h249q28 0 48 18t20 42.5t-20 42t-48 17.5h-158v61h136q5 1 19.5 -0.5t32.5 -1.5t37 -7.5t34.5 -18.5t25.5 -35t9 -57q0 -35 -10.5 -59.5t-27 -35.5t-36 -18t-37 -6.5t-31 -0.5t-16.5 0h-227v0v0zM680 203v-59l-60 29zM680 112q-8 0 -14 3l-60 30
q-18 9 -18 28.5t18 28.5l60 30q16 8 31 -1.5t15 -27.5v-60q0 -17 -15 -27q-8 -4 -17 -4v0z" />
    <glyph glyph-name="assets" unicode="&#xe61d;" 
d="M504 -128h-365q-46 0 -79 32.5t-33 78.5v732q0 44 29.5 78.5t72.5 41.5l367 60q48 7 83.5 -23t35.5 -79q0 -22 -16 -37.5t-38 -15.5q-20 0 -35.5 13.5t-17.5 34.5l-361 -59q-4 -1 -8 -5.5t-4 -8.5v-732q0 -4 4 -4h365q22 0 37.5 -15.5t15.5 -38t-15.5 -38t-37.5 -15.5z
M879 -128h-257q-48 0 -82.5 34.5t-34.5 83.5v528q0 53 38.5 83.5t89.5 18.5l259 -60q44 -10 74 -48t30 -83v-439q1 -49 -34 -83.5t-83 -34.5zM612 515v-525q0 -4 3 -7.5t7 -3.5h257q4 0 7 3.5t3 7.5v439q0 8 -6.5 16.5t-14.5 10.5zM316 695h11q17 0 30 -12.5t13 -30.5v-10
q0 -18 -13 -30.5t-30 -12.5h-11q-17 0 -30 12.5t-13 30.5v10q0 18 13 30.5t30 12.5zM316 522h11q17 0 30 -12.5t13 -30.5v-10q0 -18 -13 -30.5t-30 -12.5h-11q-17 0 -30 12.5t-13 30.5v10q0 18 13 30.5t30 12.5zM316 329h11q17 0 30 -12.5t13 -29.5v-11q0 -18 -13 -30.5
t-30 -12.5h-11q-17 0 -30 12.5t-13 30.5v11q0 17 13 29.5t30 12.5zM740 349h10q18 0 30.5 -12.5t12.5 -30.5v-11q0 -17 -12.5 -29.5t-30.5 -12.5h-10q-18 0 -30.5 12.5t-12.5 29.5v11q0 18 12.5 30.5t30.5 12.5zM740 156h10q18 0 30.5 -12.5t12.5 -30.5v-10
q0 -18 -12.5 -30.5t-30.5 -12.5h-10q-18 0 -30.5 12.5t-12.5 30.5v10q0 18 12.5 30.5t30.5 12.5zM316 137h11q17 0 30 -12.5t13 -30.5v-10q0 -18 -13 -30.5t-30 -12.5h-11q-17 0 -30 12.5t-13 30.5v10q0 18 13 30.5t30 12.5z" />
    <glyph glyph-name="finance-money" unicode="&#xe61e;" 
d="M512 -128q-104 0 -199 40q-92 39 -163 110t-110 163q-40 95 -40 199t40 199q39 92 110 163t163 110q95 40 199 40q141 0 262 -72q19 -11 24.5 -32.5t-6 -40.5t-33 -24.5t-40.5 5.5q-96 57 -207 57q-81 0 -155 -30.5t-131.5 -88t-88 -131.5t-30.5 -155t30.5 -155
t88 -131.5t131.5 -88t155 -30.5t155 30.5t131.5 88t88 131.5t30.5 155q0 100 -46 188q-11 20 -4.5 41t26.5 31.5t41 4t31 -26.5q59 -111 59 -238q0 -104 -40 -199q-39 -92 -110 -163t-163 -110q-95 -40 -199 -40zM316 592q-11 12 -11 27.5t11.5 27t27 11.5t27.5 -12
l162 -162q11 -11 11 -27t-11.5 -27t-27 -11t-26.5 11zM698 590q11 11 11 26.5t-11 27t-27 11.5t-27 -11l-162 -163q-12 -11 -12 -26.5t11.5 -27t27.5 -11.5t27 11zM340 441h344q16 0 27 -11t11 -27t-11 -27t-27 -11h-344q-16 0 -27 11t-11 27t11 27t27 11zM512 403
q16 0 27 -11t11 -27v-249q0 -15 -11 -26.5t-27 -11.5t-27 11.5t-11 26.5v249q0 16 11 27t27 11zM340 250h344q16 0 27 -11t11 -27t-11 -27t-27 -11h-344q-16 0 -27 11t-11 27t11 27t27 11z" />
    <glyph glyph-name="chart" unicode="&#xe61f;" 
d="M53 896q22 0 38 -15.5t16 -37.5v-918q0 -22 -16 -37.5t-38 -15.5t-37.5 15.5t-15.5 37.5v918q0 22 15.5 37.5t37.5 15.5zM1024 -75q0 -22 -15.5 -37.5t-37.5 -15.5h-918q-22 0 -37.5 15.5t-15.5 37.5t15.5 38t37.5 16h918q22 0 37.5 -16t15.5 -38zM465 165q-34 0 -48 31
l-68 146l-35 -57q-15 -26 -45 -26l-77 -1q-22 0 -37.5 15.5t-15.5 37.5t15.5 38t37.5 16h47l71 118q16 27 48 25.5t46 -30.5l53 -116l108 316q5 17 19 27t31 10h1q17 0 31 -10t19 -27l105 -311h179q23 0 38.5 -15.5t15.5 -37.5t-15.5 -37.5t-37.5 -15.5l-218 -1
q-17 0 -31 10t-20 26l-67 199l-99 -294q-6 -16 -19 -25.5t-29 -10.5h-3z" />
    <glyph glyph-name="base-config" unicode="&#xe620;" 
d="M254 -128q-53 0 -92 9q-26 5 -33.5 30.5t10.5 44.5l125 128q13 13 31.5 13t32 -13t13.5 -31.5t-13 -31.5l-57 -59l1.5 0.5l1.5 0.5q97 5 145 55q45 47 47 137q1 41 -8 93q-4 24 13 40l28 28l25.5 25.5t22 22.5t19.5 20.5t16.5 17t13 13.5t9.5 10.5t6 6.5l2 2q21 23 49 12
q5 -2 11.5 -4t26 -6.5t37.5 -6.5t42.5 -0.5t45.5 7.5q69 22 94 104q13 40 15 94l-14 -14l-12.5 -12.5l-11 -11l-9.5 -9.5t-6.5 -7t-4.5 -4.5l-2 -1.5q-13 -13 -31.5 -13.5t-31.5 12.5t-13 32t13 32l133 133q20 20 46.5 10t29.5 -38q13 -137 -15 -229q-21 -66 -63 -109
q-38 -37 -90 -54q-85 -27 -192 2q-49 -52 -110 -112q7 -47 6 -88q-3 -124 -73 -197q-80 -83 -229 -83zM54 7q-7 0 -14 3q-25 8 -30 34q-19 100 -2 176q17 70 64 119q26 26 61.5 44.5t67.5 27t68.5 11.5t59.5 2.5t45 -2.5q65 61 104 103q-14 90 1 160q17 73 65 123
q32 33 77.5 53.5t83.5 27t80 7t58.5 -1.5t26.5 -3q28 -5 35.5 -33t-13.5 -46q-76 -65 -141 -129q-13 -14 -31.5 -13.5t-31.5 13.5t-13 31.5t13 31.5q27 27 59 57q-92 -10 -139 -58q-68 -71 -38 -226q4 -21 -11 -38q-57 -66 -140 -140q-16 -15 -38 -11q-1 0 -13 1.5t-35 2.5
t-49 -1q-99 -8 -148 -58q-44 -45 -46 -126q8 7 66 60q14 12 32.5 11t30.5 -15t11 -33t-15 -31q-18 -13 -130 -121q-13 -13 -31 -13z" />
    <glyph glyph-name="assets-config" unicode="&#xe621;" 
d="M907 -128h-791q-48 0 -82 34t-34 83v535q0 48 34 82.5t82 34.5h466q24 0 40.5 -17t16.5 -40.5t-16.5 -40.5t-40.5 -17h-466q-2 0 -2 -2v-535q0 -2 2 -2h791q3 0 3 2v535q0 2 -3 2h-43q-23 0 -40 17t-17 40.5t17 40.5t40 17h43q49 0 83 -34t34 -83v-535q0 -49 -34 -83
t-83 -34zM61 493q-23 0 -39.5 16.5t-17.5 39.5q0 38 11 77q25 91 96 121q77 32 561 147q23 6 43 -6.5t25.5 -35.5t-7 -43.5t-35.5 -25.5q-474 -113 -543 -142q-20 -8 -30 -46q-7 -23 -7 -44q1 -24 -15.5 -41t-40.5 -17h-1v0zM650 266v0q0 -41 29 -70t70 -29t70 29t29 70v0v0
q0 41 -29 70t-70 29t-70 -29t-29 -70v0z" />
    <glyph glyph-name="lease-config" unicode="&#xe622;" 
d="M496 -128q-100 0 -192 40.5t-158.5 109.5t-106 164t-39.5 199q0 156 83.5 285t223.5 190v0q30 12 60 0h1q29 -13 41 -43q5 -12 44 -111t61 -155q9 -21 23.5 -58.5t19.5 -50.5l349 -181q28 -15 38 -46q10 -30 -4 -59q-64 -131 -183 -207.5t-261 -76.5zM318 739
q-95 -52 -150.5 -147t-55.5 -207q0 -108 51.5 -200t140 -146t192.5 -54q101 0 188 51t139 140l-354 184l-8 20q-2 4 -51 129q-65 163 -92 230zM968 314q-12 0 -24 5l-328 151q-21 9 -29 30l-126 318q-11 28 6 53t47 25q103 0 199 -42q91 -40 162 -112.5t109 -167.5
q40 -97 40 -204q0 -31 -26 -47q-14 -10 -30 -9zM683 563l219 -100q-8 35 -22 68q-30 74 -86 131q-82 85 -194 111z" />
    <glyph glyph-name="right-config" unicode="&#xe623;" 
d="M511.5 -128q-104.5 0 -198.5 40q-92 39 -163 110t-110 163q-40 94 -40 198.5t40 199.5q39 92 110 163q71 70 163 109q95 41 199 41q141 0 262 -72q19 -12 24.5 -33.5t-6 -40.5t-33 -24.5t-40.5 6.5q-96 56 -207 56q-81 0 -155 -30.5t-131.5 -88t-88 -131t-30.5 -154.5
t30.5 -155t88 -131.5t131.5 -88t155 -30.5t155 30.5t131 88t88 131.5t31 155q0 100 -47 188q-10 20 -3.5 41t26 31.5t41 4t31.5 -26.5q59 -111 59 -238q0 -105 -41 -199q-38 -92 -109 -163t-163 -110q-95 -40 -199.5 -40zM271.5 586q11.5 11 27 11t27.5 -11l205 -206
q11 -11 11 -26.5t-11 -27t-27 -11.5t-27 11l-205 206q-12 11 -12 27t11.5 27zM326 643q11 11 26.5 11.5t27 -11t11.5 -27t-11 -27.5l-54 -54q-12 -11 -27.5 -11t-27 11t-11.5 27t12 27zM421 567q11 11 27 11t27 -11t11 -27t-11 -27l-54 -54q-11 -11 -27 -11t-27 11t-11 27
t11 27zM607 93q-65 0 -111 46t-46 111t46 111.5t111 46.5t111.5 -46.5t46.5 -111.5t-46.5 -111t-111.5 -46zM607.5 322q-29.5 0 -50.5 -21t-21 -50.5t21 -50.5t50.5 -21t50.5 21t21 50.5t-21 50.5t-50.5 21z" />
    <glyph glyph-name="hydropower" unicode="&#xe624;" 
d="M524 -128q-84 0 -162 31q-74 31 -132 86q-58 56 -90 128q-33 75 -33 158q0 80 63 196q48 87 130 193q94 122 185 216q16 16 39 16t38 -16q52 -52 133 -150q14 -17 12 -39t-19 -36.5t-39.5 -12t-36.5 19.5q-41 50 -88 102q-77 -85 -140 -167q-170 -220 -170 -322
q0 -122 90 -208q91 -88 220 -88t220 88q90 86 90 208q0 67 -79 193q-12 19 -7 40.5t24 33t40.5 6.5t33.5 -23q95 -153 95 -250q0 -83 -33 -158q-32 -72 -90 -128q-58 -55 -132 -86q-78 -31 -162 -31zM486 90q-10 0 -19 4q-13 7 -19.5 20t-3.5 28l16 74h-87q-27 0 -39 24.5
t6 45.5l178 214q9 11 23 14.5t27 -2.5q26 -12 26 -39q0 -3 -1 -6l-11 -82h87q27 0 38.5 -25t-6.5 -46l-183 -210q-12 -14 -32 -14z" />
    <glyph glyph-name="lease" unicode="&#xe625;" 
d="M950 598l-434 250q-13 8 -28 7q-16 1 -29 -7l-434 -250q-18 -11 -23.5 -31t5 -38t30.5 -23t38 5l7 4v-473q0 -21 14.5 -35.5t35.5 -14.5h190q21 0 35.5 14.5t14.5 35.5t-14.5 35.5t-35.5 14.5h-140v481l306 176l412 -238q18 -10 38 -4.5t30.5 23t5 37.5t-23.5 31z
M503 382q29 0 49.5 -20.5t20.5 -49.5v-250q0 -29 -20.5 -49.5t-49.5 -20.5t-49.5 20.5t-20.5 49.5v250q0 29 20.5 49.5t49.5 20.5zM733 463q29 0 50 -20.5t21 -50.5v-330q0 -29 -21 -49.5t-50 -20.5t-49.5 20.5t-20.5 49.5v330q0 30 20.5 50.5t49.5 20.5zM954 342
q29 0 49.5 -20.5t20.5 -49.5v-210q0 -29 -20.5 -49.5t-49.5 -20.5t-49.5 20.5t-20.5 49.5v210q0 29 20.5 49.5t49.5 20.5z" />
  </font>
</defs>
</svg>
